<?xml version="1.0" encoding="UTF-8" standalone="no"?>
<svg
   xmlns:dc="http://purl.org/dc/elements/1.1/"
   xmlns:cc="http://creativecommons.org/ns#"
   xmlns:rdf="http://www.w3.org/1999/02/22-rdf-syntax-ns#"
   xmlns:svg="http://www.w3.org/2000/svg"
   xmlns="http://www.w3.org/2000/svg"
   viewBox="0 0 1050.7587 300.22134"
   height="300.22134"
   width="1050.7587"
   xml:space="preserve"
   id="svg2"
   version="1.1"><metadata
     id="metadata8"><rdf:RDF><cc:Work
         rdf:about=""><dc:format>image/svg+xml</dc:format><dc:type
           rdf:resource="http://purl.org/dc/dcmitype/StillImage" /></cc:Work></rdf:RDF></metadata><defs
     id="defs6"><clipPath
       id="clipPath18"
       clipPathUnits="userSpaceOnUse"><path
         id="path16"
         d="M 0,225.166 H 788.069 V 0 H 0 Z" /></clipPath><linearGradient
       id="linearGradient42"
       spreadMethod="pad"
       gradientTransform="matrix(0,-152.47852,152.47852,0,124.96582,182.78613)"
       gradientUnits="userSpaceOnUse"
       y2="0"
       x2="1"
       y1="0"
       x1="0"><stop
         id="stop36"
         offset="0"
         style="stop-opacity:1;stop-color:#2e7cb1" /><stop
         id="stop38"
         offset="0.88094084"
         style="stop-opacity:1;stop-color:#98d0c0" /><stop
         id="stop40"
         offset="1"
         style="stop-opacity:1;stop-color:#98d0c0" /></linearGradient><linearGradient
       id="linearGradient62"
       spreadMethod="pad"
       gradientTransform="matrix(97.541016,0,0,97.541016,86.59082,143.41113)"
       gradientUnits="userSpaceOnUse"
       y2="0"
       x2="1"
       y1="0"
       x1="0"><stop
         id="stop58"
         offset="0"
         style="stop-opacity:1;stop-color:#5fbdac" /><stop
         id="stop60"
         offset="1"
         style="stop-opacity:1;stop-color:#e7e99c" /></linearGradient><linearGradient
       id="linearGradient84"
       spreadMethod="pad"
       gradientTransform="matrix(0,-76.754395,76.754395,0,136.21582,106.53613)"
       gradientUnits="userSpaceOnUse"
       y2="0"
       x2="1"
       y1="0"
       x1="0"><stop
         id="stop78"
         offset="0"
         style="stop-opacity:1;stop-color:#e53d3b" /><stop
         id="stop80"
         offset="0.88094084"
         style="stop-opacity:1;stop-color:#924894" /><stop
         id="stop82"
         offset="1"
         style="stop-opacity:1;stop-color:#924894" /></linearGradient><linearGradient
       id="linearGradient106"
       spreadMethod="pad"
       gradientTransform="matrix(0,-40.955078,40.955078,0,190.40332,127.03613)"
       gradientUnits="userSpaceOnUse"
       y2="0"
       x2="1"
       y1="0"
       x1="0"><stop
         id="stop100"
         offset="0"
         style="stop-opacity:1;stop-color:#f18a7c" /><stop
         id="stop102"
         offset="0.88094084"
         style="stop-opacity:1;stop-color:#fdcc76" /><stop
         id="stop104"
         offset="1"
         style="stop-opacity:1;stop-color:#fdcc76" /></linearGradient><clipPath
       id="clipPath116"
       clipPathUnits="userSpaceOnUse"><path
         id="path114"
         d="M 0,225.166 H 788.069 V 0 H 0 Z" /></clipPath></defs><g
     transform="matrix(1.3333333,0,0,-1.3333333,0,300.22133)"
     id="g10"><g
       id="g12"><g
         clip-path="url(#clipPath18)"
         id="g14"><g
           transform="translate(788.1768,22.4043)"
           id="g20"><path
             id="path22"
             style="fill:#2b2927;fill-opacity:1;fill-rule:nonzero;stroke:none"
             d="m 0,0 c 0,-12.535 -10.072,-22.404 -22.629,-22.404 h -743.456 c -12.556,0 -22.092,9.574 -22.092,22.111 v 180.979 c 0,12.539 9.536,22.076 22.092,22.076 h 743.456 c 12.557,0 22.522,-9.537 22.522,-22.076 V -0.293 Z" /></g></g></g><g
       id="g24"><g
         id="g26"><g
           id="g32"><g
             id="g34"><path
               id="path44"
               style="fill:url(#linearGradient42);stroke:none"
               d="m 86.603,176.261 v -69.71 -71.124 c 0,-1.688 0.744,-2.835 1.906,-3.226 v 0 l 74.981,74.348 -74.355,73.728 c -1.497,-0.418 -2.532,-1.771 -2.532,-4.016" /></g></g></g></g><g
       id="g46"><g
         id="g48"><g
           id="g54"><g
             id="g56"><path
               id="path64"
               style="fill:url(#linearGradient62);stroke:none"
               d="m 90.191,180.417 c -0.371,0 -0.724,-0.048 -1.056,-0.14 v 0 l 74.355,-73.728 20.653,20.478 -31.039,17.921 c 0,0 -0.055,0.03 -0.159,0.091 v 0 l -0.007,0.004 c -0.025,0.014 -0.052,0.03 -0.083,0.047 v 0 l -0.007,0.005 c -0.023,0.014 -0.046,0.026 -0.071,0.041 v 0 l -0.011,0.007 c -0.005,0.003 -0.009,0.004 -0.014,0.007 v 0 l -0.019,0.011 c -0.004,0.003 -0.009,0.005 -0.015,0.008 v 0 l -0.019,0.012 c -0.001,10e-4 -0.002,0.002 -0.004,0.003 v 0 l -0.021,0.011 c -0.007,0.004 -0.013,0.007 -0.02,0.011 v 0 l -59.596,34.409 c -0.986,0.537 -1.968,0.802 -2.856,0.802 v 0 c -0.004,0 -0.008,0 -0.011,0" /></g></g></g></g><g
       id="g66"><g
         id="g68"><g
           id="g74"><g
             id="g76"><path
               id="path86"
               style="fill:url(#linearGradient84);stroke:none"
               d="M 163.489,106.547 88.509,32.201 c 0.876,-0.294 1.993,-0.157 3.206,0.508 v 0 l 8.681,5.013 c 16.91,9.766 52.708,30.435 52.708,30.435 v 0 l 15.519,8.958 15.519,8.957 -20.65,20.475 z" /></g></g></g></g><g
       id="g88"><g
         id="g90"><g
           id="g96"><g
             id="g98"><path
               id="path108"
               style="fill:url(#linearGradient106);stroke:none"
               d="m 163.49,106.549 20.652,-20.477 22.7,13.108 c 3.436,1.982 6.163,3.556 7.134,4.117 v 0 c 3.384,1.955 3.181,4.613 0.49,6.225 v 0 l -0.19,0.109 c -0.03,0.018 -0.06,0.034 -0.09,0.05 v 0 c -2.759,1.487 -26.601,15.345 -29.709,17.153 v 0 l -0.334,0.193 z" /></g></g></g></g><g
       id="g110"><g
         clip-path="url(#clipPath116)"
         id="g112"><g
           transform="translate(569.6963,117)"
           id="g118"><path
             id="path120"
             style="fill:#fbfbfb;fill-opacity:1;fill-rule:nonzero;stroke:none"
             d="m 0,0 c -4.531,0 -7.809,-1.254 -9.83,-3.762 -2.024,-2.509 -3.063,-6.502 -3.118,-11.978 v -1.496 c 0,-6.231 1.04,-10.69 3.118,-13.373 2.077,-2.684 5.408,-4.024 9.991,-4.024 3.833,0 6.834,1.549 9.007,4.651 2.17,3.101 3.256,7.377 3.256,12.828 0,5.529 -1.086,9.771 -3.256,12.724 C 6.995,-1.475 3.938,0 0,0 m 0.971,-40.258 c -2.887,0 -5.524,0.533 -7.908,1.598 -2.387,1.066 -4.392,2.705 -6.011,4.916 h -0.486 c 0.325,-2.59 0.486,-5.045 0.486,-7.363 v -18.247 h -6.713 v 64.25 h 5.461 l 0.929,-6.068 h 0.323 c 1.728,2.428 3.739,4.18 6.031,5.26 2.292,1.078 4.923,1.619 7.888,1.619 5.883,0 10.422,-2.012 13.615,-6.031 3.197,-4.018 4.797,-9.656 4.797,-16.912 0,-7.282 -1.627,-12.94 -4.874,-16.975 -3.253,-4.031 -7.763,-6.047 -13.538,-6.047" /></g><path
           id="path122"
           style="fill:#fbfbfb;fill-opacity:1;fill-rule:nonzero;stroke:none"
           d="m 604.628,77.553 h -6.715 v 62.955 h 6.715 z" /><g
           transform="translate(628.0693,82.2852)"
           id="g124"><path
             id="path126"
             style="fill:#fbfbfb;fill-opacity:1;fill-rule:nonzero;stroke:none"
             d="m 0,0 c 4.182,0 7.463,1.146 9.852,3.438 2.386,2.292 3.582,5.503 3.582,9.632 v 4.004 L 6.715,16.795 c -5.34,-0.193 -9.19,-1.02 -11.551,-2.494 -2.359,-1.469 -3.539,-3.756 -3.539,-6.858 0,-2.425 0.732,-4.275 2.204,-5.541 C -4.7,0.633 -2.646,0 0,0 M 15.172,-4.732 13.836,1.58 H 13.514 C 11.301,-1.201 9.096,-3.084 6.896,-4.064 4.699,-5.051 1.954,-5.543 -1.336,-5.543 c -4.396,0 -7.842,1.135 -10.337,3.398 -2.496,2.268 -3.743,5.489 -3.743,9.67 0,8.955 7.162,13.649 21.482,14.08 l 7.53,0.245 v 2.75 c 0,3.48 -0.749,6.05 -2.248,7.707 -1.496,1.662 -3.893,2.488 -7.181,2.488 -3.696,0 -7.878,-1.131 -12.542,-3.399 l -2.064,5.139 c 2.185,1.188 4.578,2.119 7.181,2.793 2.604,0.674 5.212,1.012 7.83,1.012 5.285,0 9.203,-1.174 11.754,-3.52 2.547,-2.347 3.822,-6.109 3.822,-11.289 V -4.732 Z" /></g><g
           transform="translate(652.1172,121.8965)"
           id="g128"><path
             id="path130"
             style="fill:#fbfbfb;fill-opacity:1;fill-rule:nonzero;stroke:none"
             d="m 0,0 h 7.199 l 9.71,-25.287 c 2.131,-5.775 3.455,-9.94 3.969,-12.506 H 21.2 c 0.352,1.379 1.088,3.73 2.205,7.064 1.119,3.333 4.782,13.573 10.985,30.729 h 7.205 L 22.534,-50.494 c -1.887,-4.99 -4.092,-8.531 -6.617,-10.623 -2.52,-2.09 -5.616,-3.133 -9.281,-3.133 -2.053,0 -4.074,0.229 -6.073,0.686 v 5.38 c 1.483,-0.322 3.144,-0.486 4.979,-0.486 4.613,0 7.9,2.59 9.873,7.77 l 2.467,6.312 z" /></g><g
           transform="translate(442.3564,94.2168)"
           id="g132"><path
             id="path134"
             style="fill:#fbfbfb;fill-opacity:1;fill-rule:nonzero;stroke:none"
             d="m 0,0 c 2.131,2.137 2.313,5.102 2.313,6.773 0,6.676 -3.987,17.065 -11.682,17.065 -2.414,0 -5.009,-1.205 -6.494,-3.063 -1.574,-1.949 -2.041,-4.449 -2.041,-6.865 0,-6.213 3.617,-16.508 11.595,-16.508 2.321,0 4.819,1.114 6.309,2.598 m -2.691,-17.625 c -0.743,0.098 -1.207,0.098 -2.131,0.098 -0.834,0 -5.85,-0.19 -9.741,-1.493 -2.041,-0.734 -7.978,-2.96 -7.978,-9.55 0,-6.58 6.402,-11.319 16.328,-11.319 8.899,0 13.635,4.276 13.635,10.022 0,4.738 -3.063,7.232 -10.113,12.242 M 3.895,23.561 C 6.027,21.797 10.479,18.088 10.479,11.035 10.479,4.178 6.583,0.924 2.686,-2.133 1.479,-3.336 0.089,-4.641 0.089,-6.682 c 0,-2.035 1.39,-3.15 2.415,-3.986 l 3.34,-2.592 c 4.081,-3.433 7.787,-6.588 7.787,-12.992 0,-8.717 -8.442,-17.527 -24.391,-17.527 -13.451,0 -19.941,6.398 -19.941,13.267 0,3.338 1.662,8.065 7.142,11.317 5.747,3.523 13.543,3.982 17.713,4.267 -1.3,1.668 -2.782,3.43 -2.782,6.301 0,1.574 0.466,2.504 0.927,3.621 -1.024,-0.094 -2.041,-0.185 -2.971,-0.185 -9.828,0 -15.392,7.328 -15.392,14.558 0,4.268 1.949,9 5.933,12.43 5.287,4.359 11.595,5.101 16.608,5.101 H 15.578 L 9.643,23.561 Z" /></g><g
           transform="translate(399.4336,85.5762)"
           id="g136"><path
             id="path138"
             style="fill:#fbfbfb;fill-opacity:1;fill-rule:nonzero;stroke:none"
             d="m 0,0 c 2.226,2.967 2.782,6.67 2.782,10.283 0,8.151 -3.888,23.705 -15.373,23.705 -3.055,0 -6.109,-1.207 -8.332,-3.152 -3.611,-3.238 -4.264,-7.314 -4.264,-11.301 0,-9.16 4.54,-24.25 15.747,-24.25 3.61,0 7.314,1.756 9.44,4.715 m -11.573,-7.5 c -14.723,0 -22.593,11.484 -22.593,21.857 0,12.133 9.906,22.497 23.987,22.497 13.606,0 22.125,-10.643 22.125,-21.85 C 11.946,4.08 3.524,-7.5 -11.573,-7.5" /></g><g
           transform="translate(349.2451,85.5762)"
           id="g140"><path
             id="path142"
             style="fill:#fbfbfb;fill-opacity:1;fill-rule:nonzero;stroke:none"
             d="m 0,0 c 2.223,2.967 2.779,6.67 2.779,10.283 0,8.151 -3.89,23.705 -15.374,23.705 -3.053,0 -6.111,-1.207 -8.333,-3.152 -3.611,-3.238 -4.259,-7.314 -4.259,-11.301 0,-9.16 4.536,-24.25 15.745,-24.25 3.612,0 7.313,1.756 9.442,4.715 m -11.576,-7.5 c -14.724,0 -22.596,11.484 -22.596,21.857 0,12.133 9.912,22.497 23.986,22.497 13.612,0 22.129,-10.643 22.129,-21.85 C 11.943,4.08 3.52,-7.5 -11.576,-7.5" /></g><g
           transform="translate(307.999,79.5293)"
           id="g144"><path
             id="path146"
             style="fill:#fbfbfb;fill-opacity:1;fill-rule:nonzero;stroke:none"
             d="m 0,0 -13.314,-3.074 c -5.403,-0.84 -10.241,-1.578 -15.36,-1.578 -25.697,0 -35.471,18.9 -35.471,33.703 0,18.058 13.872,34.814 37.614,34.814 5.029,0 9.867,-0.744 14.241,-1.955 C -5.307,59.953 -2.049,57.537 0,56.137 l -7.729,-7.354 -3.257,-0.742 2.328,3.725 c -3.164,3.072 -8.942,8.748 -19.924,8.748 -14.709,0 -25.789,-11.176 -25.789,-27.467 0,-17.498 12.664,-33.977 32.955,-33.977 5.965,0 9.03,1.209 11.825,2.328 v 14.987 l -14.057,-0.742 7.446,4.005 H 3.535 L 1.117,17.322 C 0.461,16.762 0.371,16.572 0.185,15.834 0.088,14.994 0,12.291 0,11.363 Z" /></g><g
           transform="translate(475.6768,82.209)"
           id="g148"><path
             id="path150"
             style="fill:#fbfbfb;fill-opacity:1;fill-rule:nonzero;stroke:none"
             d="m 0,0 c -3.073,0.281 -3.717,0.836 -3.717,4.473 v 1.023 51.668 c 0.02,0.201 0.031,0.406 0.051,0.6 0.375,3.257 1.305,3.816 4.195,5.496 h -13.318 l -6.986,-3.354 h 7.119 v -0.043 l -0.006,0.035 V 5.496 2.422 c 0,-1.858 -0.367,-2.141 -2.512,-4.932 H 1.307 l 3.445,2.041 C 3.171,-0.275 1.586,-0.186 0,0" /></g><g
           transform="translate(504.873,108.9082)"
           id="g152"><path
             id="path154"
             style="fill:#fbfbfb;fill-opacity:1;fill-rule:nonzero;stroke:none"
             d="m 0,0 c 1.753,0.646 2.679,1.203 2.679,2.496 0,3.695 -4.158,7.951 -9.157,7.951 -3.701,0 -10.63,-2.867 -10.63,-12.851 0,-1.573 0.185,-3.235 0.281,-4.905 z m 8.687,-27.555 c -1.013,-0.554 -2.032,-1.205 -3.043,-1.664 -3.057,-1.386 -6.2,-1.758 -8.978,-1.758 -2.952,0 -7.578,0.192 -12.298,3.608 -6.558,4.625 -9.426,12.576 -9.426,19.51 0,14.33 11.65,21.355 21.173,21.355 3.329,0 6.754,-0.83 9.529,-2.59 4.617,-3.047 5.82,-7.021 6.462,-9.15 l -21.72,-8.785 -7.121,-0.555 c 2.306,-11.742 10.257,-18.578 19.047,-18.578 4.712,0 8.134,1.66 11.277,3.23 z" /></g><g
           transform="translate(522.4854,121.7715)"
           id="g156"><path
             id="path158"
             style="fill:#fbfbfb;fill-opacity:1;fill-rule:nonzero;stroke:none"
             d="M 0,0 V -6.102 H -0.742 V 0 H -2.76 V 0.633 H 2.018 V 0 Z" /></g><g
           transform="translate(530.8018,115.6699)"
           id="g160"><path
             id="path162"
             style="fill:#fbfbfb;fill-opacity:1;fill-rule:nonzero;stroke:none"
             d="M 0,0 V 6.158 H -0.035 L -1.914,0 H -2.493 L -4.389,6.158 H -4.412 V 0 h -0.674 v 6.734 h 1.154 l 1.715,-5.441 h 0.026 l 1.687,5.441 h 1.17 L 0.666,0 Z" /></g><g
           transform="translate(255.667,169.6895)"
           id="g164"><path
             id="path166"
             style="fill:#fcfcfd;fill-opacity:1;fill-rule:nonzero;stroke:none"
             d="M 0,0 C -1.648,4.973 -2.474,7.662 -2.474,8.068 H -2.705 C -2.705,7.691 -3.557,5.002 -5.262,0 Z M 6.679,-8.166 H 2.053 c 0,0.635 -0.44,2.436 -1.317,5.406 h -6.679 c -0.906,-2.922 -1.36,-4.722 -1.36,-5.406 h -4.349 c 0,0.375 1.125,3.459 3.375,9.25 2.25,5.793 3.375,8.984 3.375,9.57 h 5.465 c 0,-0.549 1.019,-3.691 3.058,-9.431 2.038,-5.739 3.058,-8.869 3.058,-9.389" /></g><g
           transform="translate(280.9873,161.5234)"
           id="g168"><path
             id="path170"
             style="fill:#fcfcfd;fill-opacity:1;fill-rule:nonzero;stroke:none"
             d="m 0,0 h -3.572 c 0,0.395 -1.325,2.48 -3.975,6.258 -2.775,3.98 -4.357,6.703 -4.742,8.168 h -0.231 c 0.239,-2.112 0.36,-4.02 0.36,-5.725 0,-2.381 0.068,-5.281 0.203,-8.701 h -3.557 c 0.145,2.986 0.219,6.268 0.219,9.844 0,3.517 -0.074,6.51 -0.219,8.976 h 4.295 c 0,-0.509 1.19,-2.549 3.57,-6.115 C -5.113,8.918 -3.66,6.35 -3.283,5 h 0.218 c -0.232,2.148 -0.347,4.078 -0.347,5.783 0,2.612 -0.068,5.291 -0.202,8.037 H 0 C -0.137,16.43 -0.203,13.438 -0.203,9.844 -0.203,6.221 -0.137,2.939 0,0" /></g><g
           transform="translate(297.9932,170.9609)"
           id="g172"><path
             id="path174"
             style="fill:#fcfcfd;fill-opacity:1;fill-rule:nonzero;stroke:none"
             d="m 0,0 c 0,1.852 -0.54,3.41 -1.619,4.678 -1.08,1.267 -2.729,1.9 -4.944,1.9 -0.416,0 -0.984,-0.043 -1.707,-0.131 0.096,-1.926 0.145,-3.939 0.145,-6.041 0,-2.304 0.047,-4.588 0.145,-6.853 0.626,-0.123 1.251,-0.188 1.879,-0.188 2.072,0 3.607,0.645 4.605,1.932 C -0.5,-3.418 0,-1.85 0,0 m 3.947,0.623 c 0,-2.738 -0.877,-5.127 -2.631,-7.17 -1.755,-2.045 -4.212,-3.066 -7.374,-3.066 -1.425,0 -3.391,0.058 -5.897,0.175 0.125,2.911 0.187,6.192 0.187,9.844 0,3.508 -0.062,6.5 -0.187,8.977 h 2.529 c 0.414,0 1.03,0.015 1.851,0.045 0.818,0.027 1.353,0.043 1.604,0.043 3.479,0 6.002,-0.869 7.569,-2.602 C 3.163,5.133 3.947,3.053 3.947,0.623" /></g><g
           transform="translate(315.8389,174.8223)"
           id="g176"><path
             id="path178"
             style="fill:#fcfcfd;fill-opacity:1;fill-rule:nonzero;stroke:none"
             d="m 0,0 c 0,1.918 -1.234,2.877 -3.701,2.877 -0.904,0 -1.705,-0.068 -2.4,-0.203 0.107,-1.494 0.16,-3.442 0.16,-5.84 0.529,-0.021 0.978,-0.029 1.343,-0.029 C -1.532,-3.195 0,-2.131 0,0 M 5.422,-13.299 H 1.143 c -1.12,3.41 -1.977,5.516 -2.574,6.317 -0.598,0.8 -1.561,1.199 -2.891,1.199 -0.561,0 -1.094,-0.006 -1.605,-0.014 0,-2.476 0.044,-4.978 0.13,-7.502 h -4.018 c 0.124,2.91 0.187,6.192 0.187,9.844 0,3.508 -0.063,6.5 -0.187,8.976 h 2.501 c 0.289,0 0.892,0.016 1.814,0.045 0.92,0.028 1.771,0.043 2.551,0.043 4.424,0 6.635,-1.511 6.635,-4.541 0,-2.398 -1.262,-4.07 -3.788,-5.015 v -0.217 c 0.973,-0.27 1.828,-1.029 2.56,-2.275 0.731,-1.25 1.72,-3.539 2.964,-6.86" /></g><g
           transform="translate(337.9932,170.8613)"
           id="g180"><path
             id="path182"
             style="fill:#fcfcfd;fill-opacity:1;fill-rule:nonzero;stroke:none"
             d="m 0,0 c 0,2.016 -0.516,3.648 -1.547,4.9 -1.032,1.252 -2.305,1.881 -3.816,1.881 -1.408,0 -2.602,-0.631 -3.586,-1.896 -0.983,-1.262 -1.475,-2.858 -1.475,-4.785 0,-2.004 0.519,-3.633 1.555,-4.891 1.036,-1.258 2.306,-1.889 3.808,-1.889 1.407,0 2.604,0.635 3.586,1.903 C -0.492,-3.51 0,-1.918 0,0 m 3.99,0.418 c 0,-2.957 -0.907,-5.412 -2.719,-7.357 -1.811,-1.948 -4.052,-2.92 -6.721,-2.92 -2.544,0 -4.675,0.892 -6.39,2.681 -1.715,1.787 -2.573,4.061 -2.573,6.817 0,2.959 0.905,5.412 2.718,7.357 1.812,1.945 4.051,2.92 6.722,2.92 2.543,0 4.673,-0.891 6.389,-2.674 C 3.131,5.459 3.99,3.186 3.99,0.418" /></g><g
           transform="translate(350.1572,161.5234)"
           id="g184"><path
             id="path186"
             style="fill:#fcfcfd;fill-opacity:1;fill-rule:nonzero;stroke:none"
             d="m 0,0 h -4.092 c 0.126,2.986 0.19,6.268 0.19,9.844 0,3.517 -0.064,6.51 -0.19,8.976 H 0 C -0.126,16.393 -0.189,13.4 -0.189,9.844 -0.189,6.211 -0.126,2.93 0,0" /></g><g
           transform="translate(367.1641,170.9609)"
           id="g188"><path
             id="path190"
             style="fill:#fcfcfd;fill-opacity:1;fill-rule:nonzero;stroke:none"
             d="m 0,0 c 0,1.852 -0.539,3.41 -1.619,4.678 -1.079,1.267 -2.728,1.9 -4.944,1.9 -0.415,0 -0.983,-0.043 -1.706,-0.131 0.096,-1.926 0.144,-3.939 0.144,-6.041 0,-2.304 0.048,-4.588 0.146,-6.853 0.625,-0.123 1.252,-0.188 1.878,-0.188 2.073,0 3.608,0.645 4.606,1.932 C -0.499,-3.418 0,-1.85 0,0 m 3.948,0.623 c 0,-2.738 -0.879,-5.127 -2.631,-7.17 -1.756,-2.045 -4.213,-3.066 -7.373,-3.066 -1.427,0 -3.394,0.058 -5.898,0.175 0.123,2.911 0.185,6.192 0.185,9.844 0,3.508 -0.062,6.5 -0.185,8.977 h 2.527 c 0.416,0 1.032,0.015 1.852,0.045 0.82,0.027 1.353,0.043 1.605,0.043 3.478,0 6,-0.869 7.569,-2.602 C 3.164,5.133 3.948,3.053 3.948,0.623" /></g><g
           transform="translate(392.2295,169.6895)"
           id="g192"><path
             id="path194"
             style="fill:#fcfcfd;fill-opacity:1;fill-rule:nonzero;stroke:none"
             d="M 0,0 C -1.647,4.973 -2.473,7.662 -2.473,8.068 H -2.705 C -2.705,7.691 -3.556,5.002 -5.262,0 Z M 6.68,-8.166 H 2.053 c 0,0.635 -0.439,2.436 -1.317,5.406 h -6.678 c -0.906,-2.922 -1.359,-4.722 -1.359,-5.406 h -4.35 c 0,0.375 1.126,3.459 3.375,9.25 2.25,5.793 3.375,8.984 3.375,9.57 H 0.563 C 0.563,10.105 1.582,6.963 3.621,1.223 5.66,-4.516 6.68,-7.646 6.68,-8.166" /></g><g
           transform="translate(412.042,174.6191)"
           id="g196"><path
             id="path198"
             style="fill:#fcfcfd;fill-opacity:1;fill-rule:nonzero;stroke:none"
             d="m 0,0 c 0,2.063 -1.367,3.094 -4.105,3.094 -0.685,0 -1.409,-0.071 -2.168,-0.217 0.105,-1.82 0.158,-3.883 0.158,-6.188 0.24,-0.019 0.519,-0.029 0.838,-0.029 C -1.758,-3.34 0,-2.227 0,0 m 3.73,0.795 c 0,-2.303 -0.855,-4.004 -2.567,-5.104 -1.71,-1.097 -3.809,-1.646 -6.295,-1.646 -0.453,0 -0.776,0.008 -0.968,0.029 0,-1.812 0.052,-4.203 0.159,-7.17 h -4.063 c 0.125,2.783 0.188,6.065 0.188,9.844 0,3.469 -0.063,6.463 -0.188,8.977 h 2.516 c 0.356,0 1.041,0.015 2.052,0.045 1.012,0.027 1.889,0.042 2.631,0.042 1.83,0 3.379,-0.414 4.641,-1.244 C 3.1,3.738 3.73,2.482 3.73,0.795" /></g><g
           transform="translate(429.3818,174.6191)"
           id="g200"><path
             id="path202"
             style="fill:#fcfcfd;fill-opacity:1;fill-rule:nonzero;stroke:none"
             d="m 0,0 c 0,2.063 -1.369,3.094 -4.107,3.094 -0.684,0 -1.407,-0.071 -2.168,-0.217 0.106,-1.82 0.16,-3.883 0.16,-6.188 0.24,-0.019 0.519,-0.029 0.838,-0.029 C -1.76,-3.34 0,-2.227 0,0 m 3.729,0.795 c 0,-2.303 -0.856,-4.004 -2.565,-5.104 -1.711,-1.097 -3.81,-1.646 -6.297,-1.646 -0.453,0 -0.775,0.008 -0.969,0.029 0,-1.812 0.053,-4.203 0.159,-7.17 h -4.062 c 0.125,2.783 0.189,6.065 0.189,9.844 0,3.469 -0.064,6.463 -0.189,8.977 h 2.515 c 0.357,0 1.041,0.015 2.053,0.045 1.012,0.027 1.888,0.042 2.63,0.042 1.832,0 3.379,-0.414 4.642,-1.244 1.263,-0.83 1.894,-2.086 1.894,-3.773" /></g><g
           transform="translate(457.4678,170.8613)"
           id="g204"><path
             id="path206"
             style="fill:#fcfcfd;fill-opacity:1;fill-rule:nonzero;stroke:none"
             d="M 0,0 C 0,2.016 -0.514,3.648 -1.546,4.9 -2.578,6.152 -3.85,6.781 -5.361,6.781 -6.77,6.781 -7.965,6.15 -8.947,4.885 -9.932,3.623 -10.422,2.027 -10.422,0.1 c 0,-2.004 0.518,-3.633 1.555,-4.891 1.035,-1.258 2.305,-1.889 3.808,-1.889 1.409,0 2.602,0.635 3.584,1.903 C -0.49,-3.51 0,-1.918 0,0 m 3.99,0.418 c 0,-2.957 -0.904,-5.412 -2.719,-7.357 -1.81,-1.948 -4.05,-2.92 -6.72,-2.92 -2.545,0 -4.674,0.892 -6.391,2.681 -1.715,1.787 -2.572,4.061 -2.572,6.817 0,2.959 0.904,5.412 2.717,7.357 1.813,1.945 4.052,2.92 6.722,2.92 2.545,0 4.676,-0.891 6.391,-2.674 C 3.133,5.459 3.99,3.186 3.99,0.418" /></g><g
           transform="translate(481.0537,161.5234)"
           id="g208"><path
             id="path210"
             style="fill:#fcfcfd;fill-opacity:1;fill-rule:nonzero;stroke:none"
             d="m 0,0 h -3.57 c 0,0.395 -1.326,2.48 -3.977,6.258 -2.775,3.98 -4.355,6.703 -4.741,8.168 h -0.232 c 0.241,-2.112 0.362,-4.02 0.362,-5.725 0,-2.381 0.067,-5.281 0.203,-8.701 h -3.557 c 0.145,2.986 0.217,6.268 0.217,9.844 0,3.517 -0.072,6.51 -0.217,8.976 h 4.293 c 0,-0.509 1.192,-2.549 3.573,-6.115 C -5.111,8.918 -3.658,6.35 -3.281,5 h 0.217 c -0.233,2.148 -0.348,4.078 -0.348,5.783 0,2.612 -0.067,5.291 -0.202,8.037 H 0 C -0.135,16.43 -0.202,13.438 -0.202,9.844 -0.202,6.221 -0.135,2.939 0,0" /></g></g></g></g></svg>